<?xml version="1.0" encoding="UTF-8" standalone="no"?>
<!-- Created with Inkscape (http://www.inkscape.org/) -->

<svg
   xmlns:dc="http://purl.org/dc/elements/1.1/"
   xmlns:cc="http://creativecommons.org/ns#"
   xmlns:rdf="http://www.w3.org/1999/02/22-rdf-syntax-ns#"
   xmlns:svg="http://www.w3.org/2000/svg"
   xmlns="http://www.w3.org/2000/svg"
   xmlns:sodipodi="http://sodipodi.sourceforge.net/DTD/sodipodi-0.dtd"
   xmlns:inkscape="http://www.inkscape.org/namespaces/inkscape"
   width="134.51981mm"
   height="134.17743mm"
   viewBox="0 0 134.51981 134.17743"
   version="1.1"
   id="svg8"
   inkscape:version="0.92.5 (2060ec1f9f, 2020-04-08)"
   sodipodi:docname="linkedin_grey.svg">
  <defs
     id="defs2" />
  <sodipodi:namedview
     id="base"
     pagecolor="#ffffff"
     bordercolor="#666666"
     borderopacity="1.0"
     inkscape:pageopacity="0.0"
     inkscape:pageshadow="2"
     inkscape:zoom="1.4"
     inkscape:cx="95.566792"
     inkscape:cy="222.28604"
     inkscape:document-units="mm"
     inkscape:current-layer="layer1"
     showgrid="false"
     inkscape:window-width="1748"
     inkscape:window-height="1019"
     inkscape:window-x="94"
     inkscape:window-y="378"
     inkscape:window-maximized="0"
     fit-margin-top="0"
     fit-margin-left="0"
     fit-margin-right="0"
     fit-margin-bottom="0" />
  <metadata
     id="metadata5">
    <rdf:RDF>
      <cc:Work
         rdf:about="">
        <dc:format>image/svg+xml</dc:format>
        <dc:type
           rdf:resource="http://purl.org/dc/dcmitype/StillImage" />
        <dc:title></dc:title>
      </cc:Work>
    </rdf:RDF>
  </metadata>
  <g
     inkscape:label="Layer 1"
     inkscape:groupmode="layer"
     id="layer1"
     transform="translate(-35.142895,-78.318983)">
    <path
       id="path3715"
       d="m 149.89721,192.92525 h -19.97082 v -31.29349 c 0,-7.46243 -0.14866,-17.06566 -10.40666,-17.06566 -10.41262,0 -12.00271,8.11975 -12.00271,16.51496 v 31.84419 H 87.546198 v -64.35143 h 19.183942 v 8.77154 h 0.25911 c 2.68046,-5.05721 9.19886,-10.39562 18.93695,-10.39562 20.23502,0 23.97739,13.31756 23.97739,30.65294 v 35.32257 z M 64.990492,119.76829 c -6.428347,0 -11.592602,-5.20333 -11.592602,-11.60365 0,-6.39479 5.169777,-11.592597 11.592602,-11.592597 6.405834,0 11.598124,5.197807 11.598124,11.592597 0,6.40032 -5.197812,11.60365 -11.598124,11.60365 z m 10.013549,73.15696 H 54.976942 V 128.57382 H 75.004041 Z M 159.88825,78.000603 H 44.952136 c -5.501091,0 -9.951534,4.349137 -9.951534,9.715579 V 203.14672 c 0,5.37196 4.450443,9.71579 9.951534,9.71579 H 159.87147 c 5.49557,0 9.99104,-4.34383 9.99104,-9.71579 V 87.716182 c 0,-5.366442 -4.49547,-9.715579 -9.99104,-9.715579 z"
       inkscape:connector-curvature="0"
       style="stroke-width:5.61924553;fill:#646464;fill-opacity:1;stroke:none" />
    <path
       style="stroke-width:1.42857146;fill:#646464;fill-opacity:1"
       d="m 153.10797,799.45129 c -4.08408,-2.03519 -9.33522,-6.01704 -11.6692,-8.84857 -9.15442,-11.10589 -8.60904,4.16731 -8.60904,-241.0974 0,-244.96878 -0.56599,-229.10249 8.5847,-240.65618 2.38407,-3.01013 7.66118,-7.13064 11.72691,-9.15667 l 7.39223,-3.68371 h 226.58187 226.58187 l 7.39223,3.68371 c 4.06573,2.02603 9.34284,6.14654 11.72691,9.15667 9.15069,11.55369 8.5847,-4.3126 8.5847,240.65618 0,245.26471 0.54538,229.99151 -8.60904,241.0974 -2.33398,2.83153 -7.58513,6.81338 -11.6692,8.84857 l -7.4256,3.70033 H 387.11544 160.53357 Z m 130.80116,-191.65681 -0.36512,-122.5 h -37.85714 -37.85714 l -0.36512,122.5 -0.36513,122.5 h 38.58739 38.58738 z m 123.2171,55 c 0.007,-40.40996 0.61484,-71.22322 1.5159,-76.77712 4.10637,-25.31063 16.48797,-37.0923 40.24581,-38.29574 11.3323,-0.57403 13.20556,-0.28084 20.26093,3.17103 9.73964,4.76517 15.50427,13.00664 18.59131,26.57927 1.86369,8.19404 2.2324,21.62491 2.2324,81.31886 v 71.5037 h 38.57143 38.57143 V 653.8096 c 0,-44.64204 -0.63386,-82.16935 -1.52249,-90.13871 -5.29621,-47.49676 -23.2551,-71.91734 -59.90608,-81.46059 -6.42346,-1.67254 -15.01024,-2.41671 -27.85714,-2.41422 -16.26332,0.003 -20.00558,0.47627 -30.11079,3.80675 -14.13793,4.6596 -29.9385,15.38575 -37.38937,25.38163 l -5.35699,7.18679 -0.71428,-15.43839 -0.71429,-15.43838 h -36.42857 -36.42857 l -0.36512,122.5 -0.36512,122.5 h 38.57941 38.5794 l 0.0114,-67.5 z M 259.98017,450.87416 c 11.06567,-3.28614 24.12633,-16.57473 27.75396,-28.23831 6.66871,-21.44127 -3.06806,-44.12279 -23.19744,-54.03777 -9.75618,-4.80553 -28.09557,-4.72947 -38.02541,0.1577 -30.1834,14.85537 -33.81394,56.09652 -6.69402,76.04074 11.15124,8.20071 25.6339,10.3923 40.16291,6.07764 z"
       id="path3726"
       inkscape:connector-curvature="0"
       transform="scale(0.26458333)" />
    <path
       style="stroke-width:1.42857146;fill:#646464;fill-opacity:1"
       d="m 153.10797,799.45129 c -4.08408,-2.03519 -9.33522,-6.01704 -11.6692,-8.84857 -9.15431,-11.10576 -8.60904,4.15971 -8.60904,-241.02253 0,-245.18225 -0.54527,-229.91677 8.60904,-241.02253 2.33398,-2.83153 7.58512,-6.81339 11.6692,-8.84857 l 7.4256,-3.70033 h 226.58187 226.58187 l 7.4256,3.70033 c 4.08407,2.03518 9.33522,6.01704 11.6692,8.84857 9.15432,11.10576 8.60904,-4.15972 8.60904,241.02253 0,245.18224 0.54528,229.91677 -8.60904,241.02253 -2.33398,2.83153 -7.58513,6.81338 -11.6692,8.84857 l -7.4256,3.70033 H 387.11544 160.53357 Z M 284.2583,608.15162 V 486.00876 h -38.57143 -38.57143 v 122.14286 122.14286 h 38.57143 38.57143 z m 122.86793,54.64286 c 0.0114,-70.90508 0.69612,-81.06863 6.28044,-93.21429 6.74604,-14.67233 16.88154,-20.91641 35.48127,-21.85857 11.30164,-0.57247 13.21631,-0.27557 20.17336,3.12818 8.27678,4.04946 13.357,10.07042 17.61185,20.87325 2.28932,5.81241 2.57545,13.71975 2.98533,82.5 l 0.45333,76.07143 h 38.50182 38.50181 v -75.77059 c 0,-43.86447 -0.63956,-81.61204 -1.51883,-89.64286 -6.47924,-59.1785 -32.47944,-84.57537 -87.0526,-85.0326 -13.40514,-0.11228 -19.9941,0.49083 -26.42857,2.41922 -17.72947,5.31343 -33.64173,15.96831 -43.98934,29.4554 l -3.83612,5 -0.0159,-15.35715 -0.0158,-15.35714 h -37.14286 -37.14286 v 122.14286 122.14286 h 38.57143 38.57143 l 0.0114,-67.5 z m -142.063,-214.30882 c 8.14702,-4.14871 16.06298,-12.23105 20.90177,-21.3411 2.65711,-5.00259 3.25848,-8.37844 3.25611,-18.27866 -0.003,-10.40024 -0.55247,-13.18998 -3.8324,-19.43942 -10.48384,-19.97542 -32.18459,-29.04588 -53.99514,-22.56884 -11.06568,3.28616 -24.12633,16.57474 -27.75396,28.23832 -7.47237,24.02519 5.79305,48.63557 30.61869,56.80466 6.99341,2.30123 23.08225,0.51767 30.80493,-3.41496 z"
       id="path3728"
       inkscape:connector-curvature="0"
       transform="scale(0.26458333)" />
    <path
       style="fill:#646464;fill-opacity:1;stroke-width:1.42866149;stroke:#646464;stroke-opacity:1;stroke-miterlimit:4;stroke-dasharray:none;stroke-dashoffset:0"
       d="m 152.82973,799.46138 c -9.5485,-5.43009 -13.95225,-10.25286 -17.13874,-18.76953 -2.81781,-7.53127 -2.86126,-11.03816 -2.86126,-230.91076 0,-245.40352 -0.54556,-230.11733 8.60904,-241.22343 2.33398,-2.83153 7.58512,-6.81339 11.6692,-8.84857 l 7.4256,-3.70033 h 226.58187 226.58187 l 7.4256,3.70033 c 4.08407,2.03518 9.3481,6.03267 11.69784,8.88331 9.17328,11.12877 8.65273,-4.27824 8.24072,243.90898 l -0.3746,225.65024 -3.15164,5.89173 c -3.5352,6.60875 -9.56912,12.17313 -17.69649,16.31941 -5.3547,2.73176 -10.1252,2.7885 -233.02353,2.77164 L 159.2583,803.1172 Z M 284.2583,608.15162 V 486.00876 h -38.57143 -38.57143 v 122.14286 122.14286 h 38.57143 38.57143 z m 122.86793,54.64286 c 0.006,-40.00159 0.61892,-71.28285 1.50355,-76.78572 2.74907,-17.10064 9.81857,-28.2555 22.03836,-34.774 4.76186,-2.54016 8.17099,-3.06033 20.12504,-3.07067 13.54285,-0.0114 14.80593,0.24321 21.40669,4.32083 8.09193,4.99877 14.0025,14.99531 16.34687,27.6474 0.8268,4.46207 1.42584,37.62258 1.42584,78.92857 v 71.23359 h 38.57143 38.57143 l -0.0129,-73.21429 c -0.007,-40.26786 -0.64015,-80.30671 -1.40761,-88.97524 -4.4093,-49.80292 -23.47852,-76.96935 -60.0843,-85.59739 -12.36827,-2.91523 -42.28757,-2.9296 -53.43652,-0.0257 -13.50101,3.51657 -24.82524,10.3502 -36.84507,22.23421 L 404.25765,515.6624 V 500.83556 486.00872 H 367.1148 329.97194 v 122.14286 122.14285 h 38.57143 38.57143 l 0.0114,-67.5 z M 264.78949,448.30378 c 9.04666,-4.42613 17.09615,-12.75197 21.38594,-22.12015 4.21474,-9.20434 4.19897,-25.46455 -0.0337,-34.71154 -4.31671,-9.43068 -13.53295,-18.85433 -22.27338,-22.77468 -10.94393,-4.90867 -27.53317,-4.69133 -37.55787,0.49208 -30.68699,15.86711 -33.03105,57.1578 -4.34082,76.46374 9.19358,6.18646 14.02299,7.50263 25.4476,6.93532 6.75622,-0.3355 11.88647,-1.60086 17.37221,-4.28477 z"
       id="path3730"
       inkscape:connector-curvature="0"
       transform="scale(0.26458333)" />
  </g>
</svg>
